<svg xmlns="http://www.w3.org/2000/svg" xmlns:xlink="http://www.w3.org/1999/xlink" width="2467.222" height="2350.148" viewBox="0 0 2467.222 2350.148">
  <defs>
    <clipPath id="clip-path">
      <rect id="Rectangle_20" data-name="Rectangle 20" width="15" height="34.504" transform="translate(0 0)" fill="#fff"/>
    </clipPath>
    <clipPath id="clip-path-3">
      <rect id="Rectangle_38" data-name="Rectangle 38" width="95.573" height="119.882" fill="#fff"/>
    </clipPath>
  </defs>
  <g id="Group_843" data-name="Group 843" transform="translate(304.672 -620.831)">
    <path id="Path_169" data-name="Path 169" d="M191.552,1998.851S619.8,1859.494,714.3,1631s211.288,24.953,294.934-31.943,196.335-125.591,217.561-506.013S1703.359,316,1703.359,316L2025.689-11.62" transform="translate(1554.769 445.094) rotate(73)" fill="none" stroke="#fff" stroke-linecap="round" stroke-width="5" stroke-dasharray="12.147 12.147"/>
    <g id="Group_805" data-name="Group 805" transform="translate(0 -4)">
      <g id="Group_57" data-name="Group 57" transform="translate(91.625 1541.736) rotate(121)">
        <g id="Group_22" data-name="Group 22" transform="translate(0 0)" clip-path="url(#clip-path)">
          <path id="Path_170" data-name="Path 170" d="M3.955,23.26A16.668,16.668,0,0,1,.563,14.774C-.018,8.3,3.514.665,7.446.5c3.138-.129,5.859,4.527,6.882,7.388C16.9,15.1,12.6,21.81,11.9,22.871l-7.943.389" transform="translate(-0.321 -0.321)" fill="#fff"/>
          <path id="Path_171" data-name="Path 171" d="M3.955,23.26A16.668,16.668,0,0,1,.563,14.774C-.018,8.3,3.514.665,7.446.5c3.138-.129,5.859,4.527,6.882,7.388C16.9,15.1,12.6,21.81,11.9,22.871Z" transform="translate(-0.321 -0.321)" fill="#fff"/>
          <path id="Path_172" data-name="Path 172" d="M9.006,69.322l7.692-.2a7.433,7.433,0,0,1,1.113,3.34c.054.7.323,4.225-2.226,5.668A5.146,5.146,0,0,1,9.41,76.811,6.05,6.05,0,0,1,8.3,72.864a8.645,8.645,0,0,1,.709-3.542" transform="translate(-5.322 -44.343)" fill="#fff"/>
          <path id="Path_173" data-name="Path 173" d="M9.006,69.322l7.692-.2a7.433,7.433,0,0,1,1.113,3.34c.054.7.323,4.225-2.226,5.668A5.146,5.146,0,0,1,9.41,76.811,6.05,6.05,0,0,1,8.3,72.864,8.645,8.645,0,0,1,9.006,69.322Z" transform="translate(-5.322 -44.343)" fill="#fff"/>
        </g>
      </g>
      <g id="Group_58" data-name="Group 58" transform="translate(91.625 1518.225) rotate(121)">
        <g id="Group_22-2" data-name="Group 22" transform="translate(0 0)" clip-path="url(#clip-path)">
          <path id="Path_170-2" data-name="Path 170" d="M3.955,23.26A16.668,16.668,0,0,1,.563,14.774C-.018,8.3,3.514.665,7.446.5c3.138-.129,5.859,4.527,6.882,7.388C16.9,15.1,12.6,21.81,11.9,22.871l-7.943.389" transform="translate(-0.321 -0.321)" fill="#fff"/>
          <path id="Path_171-2" data-name="Path 171" d="M3.955,23.26A16.668,16.668,0,0,1,.563,14.774C-.018,8.3,3.514.665,7.446.5c3.138-.129,5.859,4.527,6.882,7.388C16.9,15.1,12.6,21.81,11.9,22.871Z" transform="translate(-0.321 -0.321)" fill="#fff"/>
          <path id="Path_172-2" data-name="Path 172" d="M9.006,69.322l7.692-.2a7.433,7.433,0,0,1,1.113,3.34c.054.7.323,4.225-2.226,5.668A5.146,5.146,0,0,1,9.41,76.811,6.05,6.05,0,0,1,8.3,72.864a8.645,8.645,0,0,1,.709-3.542" transform="translate(-5.322 -44.343)" fill="#fff"/>
          <path id="Path_173-2" data-name="Path 173" d="M9.006,69.322l7.692-.2a7.433,7.433,0,0,1,1.113,3.34c.054.7.323,4.225-2.226,5.668A5.146,5.146,0,0,1,9.41,76.811,6.05,6.05,0,0,1,8.3,72.864,8.645,8.645,0,0,1,9.006,69.322Z" transform="translate(-5.322 -44.343)" fill="#fff"/>
        </g>
      </g>
    </g>
    <g id="Group_62" data-name="Group 62" transform="translate(299.752 1492.962) rotate(25)">
      <g id="Group_61" data-name="Group 61" clip-path="url(#clip-path-3)">
        <path id="Path_392" data-name="Path 392" d="M51.052,41.545A81.687,81.687,0,0,0,39.377,40.8a.269.269,0,0,0-.028.536,81.764,81.764,0,0,0,11.691.448.12.12,0,0,0,.012-.24" transform="translate(-20.539 -21.43)" fill="#fff"/>
        <path id="Path_393" data-name="Path 393" d="M74.506,44.15a5.784,5.784,0,0,0,2.014-.111.213.213,0,0,0,.02-.407,5.764,5.764,0,0,0-1.992-.315.417.417,0,0,0-.043.833" transform="translate(-38.933 -22.752)" fill="#fff"/>
        <path id="Path_394" data-name="Path 394" d="M84.323,45.171a.326.326,0,0,0,.033-.65.326.326,0,0,0-.033.65" transform="translate(-44.134 -23.384)" fill="#fff"/>
        <path id="Path_395" data-name="Path 395" d="M96.609,45.04a.377.377,0,0,0-.038.753.377.377,0,0,0,.038-.753" transform="translate(-50.542 -23.657)" fill="#fff"/>
        <path id="Path_396" data-name="Path 396" d="M107.419,44.768c4.391.27,8.99,1,13.379.808.17-.008.258-.284.06-.323-4.33-.855-9-.837-13.4-1.238-.482-.044-.524.723-.038.753" transform="translate(-56.24 -23.118)" fill="#fff"/>
        <path id="Path_397" data-name="Path 397" d="M39.661,59.569a3.012,3.012,0,0,0-1.165-.216,8.45,8.45,0,0,1-1.52-.291.292.292,0,0,0-.183.553c.771.287,2.065.776,2.849.348a.23.23,0,0,0,.02-.394" transform="translate(-19.225 -31.015)" fill="#fff"/>
        <path id="Path_398" data-name="Path 398" d="M50.023,60.571a.417.417,0,0,0-.043.833.417.417,0,0,0,.043-.833" transform="translate(-26.051 -31.814)" fill="#fff"/>
        <path id="Path_399" data-name="Path 399" d="M76.13,61.455a41.212,41.212,0,0,0-8.874-.35.135.135,0,0,0-.13-.1.136.136,0,0,0-.147.123c-.137.01-.275.017-.412.028-.283.024-.212.444.039.474a41.17,41.17,0,0,0,9.539.009c.11-.013.079-.166-.015-.18" transform="translate(-34.867 -32.04)" fill="#fff"/>
        <path id="Path_400" data-name="Path 400" d="M127.039,63.031A.383.383,0,0,0,127,63.8a4.038,4.038,0,0,0,1.828-.092.23.23,0,0,0,.02-.394,4.039,4.039,0,0,0-1.81-.278" transform="translate(-66.522 -33.106)" fill="#fff"/>
        <path id="Path_401" data-name="Path 401" d="M135.2,63.7a.411.411,0,0,0,.042-.821.411.411,0,0,0-.042.821" transform="translate(-70.814 -33.025)" fill="#fff"/>
        <path id="Path_402" data-name="Path 402" d="M40.5,51.539a.171.171,0,0,0,.018-.342q-.848-.113-1.7-.218c-.387-.048-.422.613-.031.6q.855-.018,1.711-.044" transform="translate(-20.227 -26.775)" fill="#fff"/>
        <path id="Path_403" data-name="Path 403" d="M58.19,51.747a.411.411,0,0,0-.042.821.411.411,0,0,0,.042-.821" transform="translate(-30.344 -27.18)" fill="#fff"/>
        <path id="Path_404" data-name="Path 404" d="M76.643,53.514a.377.377,0,0,0,.038-.753.377.377,0,0,0-.038.753" transform="translate(-40.075 -27.712)" fill="#fff"/>
        <path id="Path_405" data-name="Path 405" d="M95.962,52.673a.149.149,0,0,0-.015.3.149.149,0,0,0,.015-.3" transform="translate(-50.324 -27.666)" fill="#fff"/>
        <path id="Path_406" data-name="Path 406" d="M115.741,53.446c-4.416-.766-9.165-.541-13.639-.56-.205,0-.222.32-.016.319,4.546-.029,9.116.545,13.645.435a.1.1,0,0,0,.01-.194" transform="translate(-53.543 -27.769)" fill="#fff"/>
        <path id="Path_407" data-name="Path 407" d="M93.119,109.685a110.424,110.424,0,0,0-16.073-1.316.274.274,0,0,0-.028.548,109.736,109.736,0,0,0,16.052,1.035c.141-.006.214-.236.05-.267" transform="translate(-40.322 -56.92)" fill="#fff"/>
        <path id="Path_408" data-name="Path 408" d="M127.167,112.64a.3.3,0,0,0,.031-.6.3.3,0,0,0-.031.6" transform="translate(-66.648 -58.846)" fill="#fff"/>
        <path id="Path_409" data-name="Path 409" d="M145.085,113.554a.326.326,0,0,0,.033-.65.326.326,0,0,0-.033.65" transform="translate(-76.048 -59.301)" fill="#fff"/>
        <path id="Path_410" data-name="Path 410" d="M156.577,113.12a.183.183,0,0,0,.019-.365.183.183,0,0,0-.019.365" transform="translate(-82.153 -59.223)" fill="#fff"/>
        <path id="Path_411" data-name="Path 411" d="M174.173,112.992c-1.056-.024-2.116,0-3.173.008-.207,0-.22.329-.017.32,1.06-.05,2.123-.077,3.181-.156.106-.008.122-.169.009-.171" transform="translate(-89.731 -59.343)" fill="#fff"/>
        <path id="Path_412" data-name="Path 412" d="M77.309,119.753a11.3,11.3,0,0,0-4.516-.263.276.276,0,0,0-.027.528,11.3,11.3,0,0,0,4.519.2.242.242,0,0,0,.024-.462" transform="translate(-38.124 -62.701)" fill="#fff"/>
        <path id="Path_413" data-name="Path 413" d="M97.58,119.262c-.566-.093-1.129-.2-1.693-.3-.517-.094-.566.852-.041.81.572-.045,1.143-.095,1.715-.13a.189.189,0,0,0,.019-.376" transform="translate(-50.148 -62.478)" fill="#fff"/>
        <path id="Path_414" data-name="Path 414" d="M108.672,120.119a.411.411,0,0,0-.042.821.411.411,0,0,0,.042-.821" transform="translate(-56.86 -63.091)" fill="#fff"/>
        <path id="Path_415" data-name="Path 415" d="M121.5,121.081c.827-.033,1.665-.029,2.489-.107a.161.161,0,0,0,.016-.308c-.812-.162-1.646-.244-2.465-.36-.5-.071-.542.8-.039.776" transform="translate(-63.63 -63.187)" fill="#fff"/>
        <path id="Path_416" data-name="Path 416" d="M146.337,122.078c-3.894-.266-7.792-.293-11.695-.354a.1.1,0,0,0-.01.206c3.9.141,7.8.315,11.7.251a.051.051,0,0,0,.005-.1" transform="translate(-70.665 -63.935)" fill="#fff"/>
        <path id="Path_417" data-name="Path 417" d="M180.276,122.761a.154.154,0,0,0-.016.308.154.154,0,0,0,.016-.308" transform="translate(-94.606 -64.479)" fill="#fff"/>
        <path id="Path_418" data-name="Path 418" d="M123.793,128.335a20.6,20.6,0,0,0-5.169-.381.349.349,0,0,0-.036.7,20.621,20.621,0,0,0,5.181.147.242.242,0,0,0,.024-.462" transform="translate(-62.12 -67.207)" fill="#fff"/>
        <path id="Path_419" data-name="Path 419" d="M148.065,129.8a22.081,22.081,0,0,0-2.671-.256.24.24,0,0,0-.024.479,22.1,22.1,0,0,0,2.683.017.12.12,0,0,0,.012-.24" transform="translate(-76.239 -68.041)" fill="#fff"/>
        <path id="Path_420" data-name="Path 420" d="M164.1,129.9a6.71,6.71,0,0,0-1.842-.233l-2.095-.146a.366.366,0,0,0-.038.73l2.1.067a6.689,6.689,0,0,0,1.856-.044.2.2,0,0,0,.019-.374" transform="translate(-83.928 -68.031)" fill="#fff"/>
        <path id="Path_421" data-name="Path 421" d="M176.5,130.79a.406.406,0,0,0-.041.81.406.406,0,0,0,.041-.81" transform="translate(-92.488 -68.696)" fill="#fff"/>
        <path id="Path_422" data-name="Path 422" d="M90.462,62.462a.024.024,0,0,0,0-.048.024.024,0,0,0,0,.048" transform="translate(-47.503 -32.782)" fill="#fff"/>
        <path id="Path_423" data-name="Path 423" d="M98.938,62.275a.341.341,0,1,0-.125.668,6.722,6.722,0,0,0,1.747.173.184.184,0,0,0,.061-.331,6.746,6.746,0,0,0-1.683-.509" transform="translate(-51.738 -32.703)" fill="#fff"/>
        <path id="Path_424" data-name="Path 424" d="M107.569,63.194a.32.32,0,0,0-.033.639.32.32,0,0,0,.033-.639" transform="translate(-56.329 -33.192)" fill="#fff"/>
        <path id="Path_425" data-name="Path 425" d="M119.094,65.466a.024.024,0,0,0,0-.049.024.024,0,0,0,0,.049" transform="translate(-62.542 -34.36)" fill="#fff"/>
        <path id="Path_426" data-name="Path 426" d="M28.654,170.842c3.864.508,7.847.089,11.716-.21.064,0,.073-.1.005-.1-3.89-.014-7.813-.414-11.7-.166a.24.24,0,0,0-.024.479" transform="translate(-14.935 -89.44)" fill="#fff"/>
        <path id="Path_427" data-name="Path 427" d="M62.45,173.079a16.073,16.073,0,0,0,3.7.08.155.155,0,0,0,.015-.3,16.05,16.05,0,0,0-3.686-.3.257.257,0,0,0-.026.513" transform="translate(-32.678 -90.639)" fill="#fff"/>
        <path id="Path_428" data-name="Path 428" d="M76.319,173.273a.257.257,0,0,0,.026-.513.257.257,0,0,0-.026.513" transform="translate(-39.962 -90.74)" fill="#fff"/>
        <path id="Path_429" data-name="Path 429" d="M90.68,174.521a10.755,10.755,0,0,0,1.983-.023.109.109,0,0,0,.01-.209,10.748,10.748,0,0,0-1.97-.225.229.229,0,0,0-.023.456" transform="translate(-47.519 -91.426)" fill="#fff"/>
        <path id="Path_430" data-name="Path 430" d="M99.85,174.986a.28.28,0,0,0,.028-.559.28.28,0,0,0-.028.559" transform="translate(-52.311 -91.616)" fill="#fff"/>
        <path id="Path_431" data-name="Path 431" d="M110.146,174.973a22.011,22.011,0,0,0,7.1-.1.086.086,0,0,0-.014-.169c-2.335-.25-4.711-.063-7.058-.271-.345-.03-.371.5-.028.536" transform="translate(-57.725 -91.621)" fill="#fff"/>
        <path id="Path_432" data-name="Path 432" d="M14.925,178.428a.223.223,0,0,0-.023.445,20.332,20.332,0,0,0,4.179.123.138.138,0,0,0,.014-.264,20.338,20.338,0,0,0-4.17-.3" transform="translate(-7.72 -93.716)" fill="#fff"/>
        <path id="Path_433" data-name="Path 433" d="M32.551,179.788a.029.029,0,0,0,0-.057.029.029,0,0,0,0,.057" transform="translate(-17.084 -94.402)" fill="#fff"/>
        <path id="Path_434" data-name="Path 434" d="M39.645,180.147a.1.1,0,0,0,.01-.205.1.1,0,0,0-.01.205" transform="translate(-20.774 -94.513)" fill="#fff"/>
        <path id="Path_435" data-name="Path 435" d="M46.26,180.722a.137.137,0,0,0-.014.274,11.044,11.044,0,0,0,1.972.04.08.08,0,0,0,.008-.154,11.077,11.077,0,0,0-1.965-.16" transform="translate(-24.224 -94.923)" fill="#fff"/>
        <path id="Path_436" data-name="Path 436" d="M54.3,181.4a4.671,4.671,0,0,0,1.266-.056.161.161,0,0,0,.016-.308,4.693,4.693,0,0,0-1.253-.184.274.274,0,0,0-.028.548" transform="translate(-28.387 -94.991)" fill="#fff"/>
        <path id="Path_437" data-name="Path 437" d="M65.716,181.1a.189.189,0,0,0-.019.376.189.189,0,0,0,.019-.376" transform="translate(-34.416 -95.119)" fill="#fff"/>
        <path id="Path_438" data-name="Path 438" d="M75.874,181.984,77.1,181.9a.114.114,0,0,0,.011-.228l-1.21-.205c-.328-.055-.358.536-.026.514" transform="translate(-39.729 -95.314)" fill="#fff"/>
        <path id="Path_439" data-name="Path 439" d="M82.2,182.319a.1.1,0,0,0,.01-.205.1.1,0,0,0-.01.205" transform="translate(-43.125 -95.654)" fill="#fff"/>
        <path id="Path_440" data-name="Path 440" d="M89.812,182.7a.171.171,0,0,0,.018-.342.171.171,0,0,0-.018.342" transform="translate(-47.091 -95.784)" fill="#fff"/>
        <path id="Path_441" data-name="Path 441" d="M103.218,183.15c4.086.12,8.692.923,12.733.241.195-.033.229-.367.021-.407-4.034-.765-8.648-.071-12.743-.04-.132,0-.144.2-.01.206" transform="translate(-54.165 -95.923)" fill="#fff"/>
        <path id="Path_442" data-name="Path 442" d="M25.139,189.164a110.716,110.716,0,0,0,16.069.74.172.172,0,0,0,.018-.342,110.737,110.737,0,0,0-16.061-.9.252.252,0,0,0-.026.5" transform="translate(-13.083 -99.093)" fill="#fff"/>
        <path id="Path_443" data-name="Path 443" d="M67.632,190.879a7.451,7.451,0,0,0-.918-.218.317.317,0,1,0-.032.616,7.342,7.342,0,0,0,.935-.123.144.144,0,0,0,.014-.275" transform="translate(-34.829 -100.138)" fill="#fff"/>
        <path id="Path_444" data-name="Path 444" d="M73.761,191.643a.326.326,0,0,0,.033-.65.326.326,0,0,0-.033.65" transform="translate(-38.586 -100.317)" fill="#fff"/>
        <path id="Path_445" data-name="Path 445" d="M85.5,192.24a.372.372,0,0,0,.038-.742.372.372,0,0,0-.038.742" transform="translate(-44.731 -100.583)" fill="#fff"/>
        <path id="Path_446" data-name="Path 446" d="M93.419,191.716a.211.211,0,0,0-.021.422.211.211,0,0,0,.021-.422" transform="translate(-48.955 -100.697)" fill="#fff"/>
        <path id="Path_447" data-name="Path 447" d="M97.466,192.859c3.886.237,8.113,1.044,11.986.61a.224.224,0,0,0,.022-.429c-3.81-.828-8.1-.454-11.986-.614a.217.217,0,0,0-.022.433" transform="translate(-51.089 -101.07)" fill="#fff"/>
        <path id="Path_448" data-name="Path 448" d="M95.308,57.6c-1.6-2.387-3.712-4.322-5.506-6.546-1.192-1.478-2.573-3.207-4.591-3.637a40.853,40.853,0,0,0-6.148-.9l-7.614-.474c-5.436-.338-10.876-.6-16.316-.883l-.2-.01.442-8.576,6.987.357c1.478.075,2.984.187,4.465.142,1.246-.038,2.735.281,3.937-.083,2.049-.619,1.593-3.788,1.724-5.435.141-1.782.2-3.569.259-5.356.046-1.454.086-2.9.16-4.336.061-1.192.123-2.385.111-3.578-.009-.9.181-2.464-.809-2.964a2.5,2.5,0,0,0-.9-.2c-2.6-.246-5.192-.519-7.8-.652l-6.936-.354q.1-1.4.218-2.8c.254-2.908.438-6.253-1.047-8.608C53.59-.7,49.5-.933,47,2.259,45.285,4.45,45.127,7.8,45.084,10.714c-.014.936-.041,1.872-.072,2.807-4.714-.242-9.427-.485-14.143-.673-2.541-.1-11.752-.26-13.83-.036-2.051.222-3.6,1.8-4.938,3.15-2.011,2.03-4.309,3.74-6.144,5.952a1.42,1.42,0,0,0-.089,1.739c1.6,2.387,3.712,4.323,5.506,6.546,1.192,1.478,2.573,3.207,4.591,3.637a40.852,40.852,0,0,0,6.148.9l7.614.474c4.729.294,9.461.534,14.193.774l-.434,8.577-4.668-.238c-1.478-.075-2.984-.187-4.465-.142-1.246.038-2.735-.281-3.937.083-2.049.619-1.593,3.789-1.724,5.435-.141,1.782-.2,3.57-.259,5.356-.046,1.454-.086,2.9-.16,4.336-.061,1.191-.123,2.384-.111,3.578.009.9-.181,2.464.809,2.964a2.5,2.5,0,0,0,.9.2c2.6.246,5.192.518,7.8.652l4.664.238q-.23,4.284-.482,8.567l-.265-.014c-5.44-.278-10.879-.566-16.321-.783-2.541-.1-11.752-.26-13.83-.036-2.051.222-3.6,1.8-4.937,3.15-2.012,2.03-4.31,3.741-6.144,5.952A1.419,1.419,0,0,0,.264,85.6c1.6,2.387,3.712,4.322,5.506,6.546,1.192,1.477,2.573,3.207,4.591,3.637a40.784,40.784,0,0,0,6.148.9l7.614.474c5.436.339,10.876.605,16.316.883l.094,0c-.4,6.865-.749,13.788-.489,20.584.045,1.171,2.084.987,2.232-.066.314-2.235.785-9.948,1.321-20.362l5.758.294c-.527,10.413-.844,18.135-.759,20.39.04,1.062,2.05,1.453,2.214.292.95-6.733,1.312-13.656,1.609-20.527l4.336.221c1.478.076,2.984.187,4.465.142,1.246-.038,2.735.281,3.937-.082,2.049-.619,1.593-3.789,1.724-5.435.141-1.782.2-3.569.259-5.356.045-1.454.086-2.9.16-4.336.062-1.192.124-2.385.111-3.578-.01-.9.181-2.464-.809-2.964a2.5,2.5,0,0,0-.9-.2c-2.6-.246-5.192-.519-7.8-.652l-4.5-.23q.187-4.286.39-8.571l.2.01c5.44.278,10.879.566,16.322.783,2.54.1,11.752.26,13.83.036,2.051-.222,3.6-1.8,4.938-3.15,2.011-2.03,4.309-3.74,6.144-5.952a1.42,1.42,0,0,0,.089-1.739M47.785,5.969a4.674,4.674,0,0,1,.752-1.68c1.81-2.454,3.9-2.374,5.468.279a4.674,4.674,0,0,1,.578,1.748c.024.172-.127,3.012-.394,7.674L47.4,13.643c.209-4.668.348-7.5.39-7.674M15.695,31.315c-.719-1.026-1.58-2.007-2.3-2.932-1.444-1.865-3.035-3.619-4.529-5.447,1.672-1.666,3.434-3.249,5.06-4.957.807-.847,1.763-1.735,2.582-2.683,2.394,1.052,46.73,3.3,46.73,3.3,2.185.112,4.369.2,6.547.194-.155,1.63-.221,3.278-.309,4.9-.043.79-.1,1.574-.082,2.337-.1.757-.119,1.544-.157,2.333-.078,1.621-.18,3.267-.192,4.9-2.166-.226-4.348-.363-6.533-.474,0,0-44.335-2.277-46.823-1.475m37.174,5.127c-.163,2.763-.333,5.628-.506,8.573l-6.31-.322c.127-2.945.251-5.815.369-8.579l6.447.329m4.771,44.1c2.185.112,4.369.2,6.547.194-.155,1.63-.22,3.278-.308,4.9-.043.79-.1,1.574-.082,2.337-.1.757-.119,1.544-.157,2.333-.077,1.621-.18,3.267-.192,4.9-2.166-.226-4.348-.363-6.533-.474,0,0-44.335-2.276-46.823-1.474-.719-1.027-1.579-2.007-2.3-2.933-1.444-1.864-3.036-3.619-4.529-5.447,1.672-1.666,3.434-3.249,5.06-4.957.807-.847,1.763-1.735,2.582-2.684,2.394,1.052,46.73,3.3,46.73,3.3M45.067,67.163l5.988.306c-.165,2.881-.328,5.746-.487,8.566l-5.889-.3c.13-2.821.259-5.688.388-8.571m42.178-3.891c-.807.847-1.763,1.735-2.582,2.683-2.394-1.052-46.73-3.3-46.73-3.3-2.185-.112-4.369-.2-6.547-.193.155-1.63.221-3.278.309-4.9.043-.79.1-1.574.082-2.337.1-.757.119-1.543.157-2.333.078-1.621.18-3.267.192-4.9,2.166.226,4.348.362,6.533.474,0,0,44.335,2.277,46.823,1.475.719,1.027,1.58,2.007,2.3,2.933,1.444,1.864,3.035,3.619,4.529,5.447-1.672,1.666-3.434,3.249-5.06,4.957" transform="translate(0 0)" fill="#fff"/>
      </g>
    </g>
  </g>
</svg>
